<?xml version="1.0" standalone="no"?>
<!DOCTYPE svg PUBLIC "-//W3C//DTD SVG 20010904//EN"
 "http://www.w3.org/TR/2001/REC-SVG-20010904/DTD/svg10.dtd">
<svg version="1.0" xmlns="http://www.w3.org/2000/svg"
 width="5120.000000pt" height="5120.000000pt" viewBox="0 0 5120.000000 5120.000000"
 preserveAspectRatio="xMidYMid meet">

<g transform="translate(0.000000,5120.000000) scale(0.100000,-0.100000)"
fill="#000000" stroke="none">
<path d="M8495 51189 c-1908 -75 -3733 -766 -5220 -1978 -1179 -961 -2096
-2208 -2650 -3606 -376 -950 -573 -1886 -615 -2930 -13 -328 -13 -33822 0
-34150 42 -1044 239 -1980 615 -2930 919 -2319 2802 -4161 5148 -5039 898
-335 1787 -510 2792 -547 190 -7 5758 -9 17290 -7 15879 4 17022 5 17185 21
431 41 699 79 1014 142 1138 226 2182 654 3149 1291 524 345 938 685 1397
1144 348 347 552 581 833 955 642 855 1121 1814 1422 2845 188 646 296 1292
335 2000 13 250 13 33938 0 34275 -42 1044 -239 1980 -615 2930 -807 2034
-2368 3722 -4340 4690 -1125 552 -2284 843 -3560 895 -285 11 -33888 11
-34180 -1z m17745 -12582 c58 -10 166 -33 240 -51 718 -179 1319 -709 1593
-1406 44 -112 95 -287 117 -400 35 -180 40 -284 40 -857 l0 -573 -4697 -3
-4698 -3 -151 -22 c-505 -73 -934 -216 -1354 -450 -994 -554 -1693 -1543
-1884 -2662 -53 -310 -50 -38 -53 -4070 l-3 -3726 -813 -811 c-784 -782 -815
-812 -887 -847 -257 -124 -549 -11 -662 255 l-23 54 -5 1410 -5 1410 -295 6
c-315 7 -388 15 -602 69 -475 120 -912 404 -1227 795 -277 345 -445 745 -496
1185 -23 192 -22 8472 0 8664 96 816 608 1511 1370 1858 212 96 529 175 770
191 28 2 3103 3 6835 3 6454 -1 6790 -2 6890 -19z m11923 -4020 c365 -54 676
-149 977 -300 803 -404 1387 -1128 1605 -1991 24 -94 54 -236 66 -316 l24
-145 3 -5920 c2 -4209 0 -5958 -8 -6050 -51 -613 -277 -1183 -660 -1665 -105
-132 -355 -383 -483 -484 -474 -375 -1033 -602 -1619 -656 -62 -6 -297 -11
-523 -13 l-410 -2 -5 -2055 -5 -2055 -23 -54 c-93 -219 -317 -343 -538 -297
-161 32 23 -142 -2389 2268 l-2200 2198 -6510 0 c-5721 0 -6526 2 -6640 15
-569 66 -1092 282 -1550 640 -367 287 -660 654 -866 1080 -148 308 -235 601
-281 940 -19 146 -20 12065 0 12200 23 162 70 378 111 510 369 1203 1445 2068
2692 2164 57 5 4381 8 9609 7 8967 -2 9512 -3 9623 -19z"/>
</g>
</svg>
