<?xml version="1.0" standalone="no"?>
<!DOCTYPE svg PUBLIC "-//W3C//DTD SVG 20010904//EN"
 "http://www.w3.org/TR/2001/REC-SVG-20010904/DTD/svg10.dtd">
<svg version="1.0" xmlns="http://www.w3.org/2000/svg"
 width="1920.000000pt" height="1920.000000pt" viewBox="0 0 1920.000000 1920.000000"
 preserveAspectRatio="xMidYMid meet">
<metadata>
Created by potrace 1.16, written by Peter Selinger 2001-2019
</metadata>
<g transform="translate(0.000000,1920.000000) scale(0.100000,-0.100000)"
fill="#000000" stroke="none">
<path d="M8795 15281 c-49 -22 -99 -77 -115 -126 -7 -21 -10 -64 -8 -96 5 -71
41 -128 108 -174 l45 -30 587 -3 588 -3 -3 -482 -2 -482 -85 -7 c-639 -55
-1040 -150 -1640 -386 -171 -67 -711 -354 -740 -392 -3 -4 -45 -33 -94 -64
-233 -150 -497 -366 -732 -601 -215 -213 -243 -264 -209 -380 29 -103 100
-154 211 -155 34 0 78 7 97 15 21 9 104 82 199 177 207 206 473 428 638 533
25 16 63 43 85 60 139 108 618 355 865 446 283 105 626 205 766 224 27 3 110
15 184 26 449 66 894 69 1310 8 74 -11 168 -24 209 -29 153 -20 472 -109 716
-200 61 -23 117 -43 126 -45 39 -8 220 -93 415 -193 426 -219 806 -502 1159
-863 375 -384 663 -805 893 -1306 72 -157 178 -430 187 -482 3 -16 13 -57 24
-92 142 -469 199 -893 188 -1389 -10 -414 -61 -753 -171 -1125 -19 -67 -38
-136 -41 -154 -10 -57 -165 -447 -213 -536 -12 -22 -22 -44 -22 -49 0 -14
-159 -305 -232 -423 -319 -521 -830 -1050 -1323 -1372 -55 -36 -102 -68 -105
-72 -15 -20 -222 -136 -420 -234 -267 -133 -323 -156 -639 -261 -235 -78 -525
-148 -656 -159 -33 -3 -89 -10 -125 -15 -312 -47 -811 -51 -1112 -10 -37 6
-100 12 -140 15 -233 18 -774 168 -1093 302 -147 62 -478 230 -600 305 -141
86 -287 183 -316 209 -15 13 -71 58 -125 99 -160 122 -322 269 -511 466 -122
125 -190 188 -216 199 -81 33 -189 11 -250 -51 -42 -42 -56 -75 -60 -143 -5
-89 19 -132 165 -289 204 -219 446 -434 688 -612 69 -50 140 -103 158 -117 18
-14 58 -41 90 -61 169 -104 310 -186 360 -211 31 -15 111 -55 177 -88 206
-104 391 -178 675 -271 172 -56 450 -129 520 -136 25 -3 110 -16 190 -30 301
-52 419 -61 805 -60 385 0 503 8 810 60 83 14 179 29 213 35 145 21 573 145
705 204 31 13 67 26 80 29 72 13 562 248 722 347 690 424 1174 877 1591 1489
43 63 81 117 85 120 11 9 173 290 227 395 126 247 288 628 306 722 3 12 23 79
45 149 74 237 143 556 175 814 20 160 18 112 19 640 1 309 -3 486 -12 550 -40
311 -94 568 -177 844 -30 100 -54 186 -54 192 0 6 -34 96 -75 200 -227 569
-487 999 -888 1473 l-80 93 319 319 c175 176 323 319 329 319 6 0 109 -99 230
-220 242 -242 278 -268 362 -256 84 11 157 65 187 138 23 54 21 145 -5 193
-12 24 -262 282 -612 634 -448 449 -603 598 -637 614 -64 29 -152 28 -216 -4
-87 -43 -132 -155 -104 -259 10 -40 40 -73 243 -278 l232 -232 -325 -325 -324
-324 -70 62 c-160 141 -363 296 -516 395 -47 31 -132 86 -190 124 -142 93
-652 350 -720 363 -11 2 -83 28 -162 59 -205 78 -508 168 -611 180 -25 3 -74
12 -108 21 -143 33 -465 76 -671 91 l-98 7 0 483 0 483 563 3 562 3 45 30 c67
46 103 103 108 174 2 32 -1 75 -8 96 -16 49 -66 104 -115 126 -38 18 -106 19
-1405 19 -1299 0 -1367 -1 -1405 -19z"/>
<path d="M10122 12635 c-54 -28 -92 -68 -111 -118 -7 -17 -11 -178 -11 -444
l-1 -417 24 -45 c83 -163 319 -165 398 -4 l24 48 0 420 0 420 -25 50 c-52 104
-188 145 -298 90z"/>
<path d="M12650 11608 c-28 -7 -225 -199 -951 -925 l-917 -916 -85 45 c-162
87 -251 107 -468 109 -214 1 -318 -22 -477 -108 -294 -158 -476 -401 -542
-721 -37 -182 -23 -361 45 -561 38 -114 54 -143 136 -251 111 -146 272 -276
427 -344 89 -39 238 -75 346 -82 397 -28 808 212 985 575 85 174 118 337 107
521 -8 140 -36 249 -96 377 -27 58 -50 111 -50 117 0 6 403 414 896 906 492
492 906 913 920 936 48 81 41 177 -19 256 -52 68 -156 95 -257 66z m-2302
-2143 c170 -40 318 -160 396 -320 65 -133 80 -235 52 -366 -63 -297 -356 -510
-644 -469 -126 18 -203 55 -322 156 -103 88 -154 184 -181 342 -22 124 15 302
81 394 64 89 165 178 258 227 44 23 167 50 232 50 36 1 93 -6 128 -14z"/>
<path d="M6905 11120 c-844 -5 -861 -5 -895 -25 -19 -12 -48 -40 -65 -64 -27
-39 -30 -50 -30 -125 0 -73 3 -87 28 -124 15 -23 46 -54 69 -69 l42 -28 875 0
876 0 41 22 c49 26 89 81 105 146 27 111 -48 238 -158 265 -15 4 -415 5 -888
2z"/>
<path d="M5263 9106 c-62 -20 -99 -51 -127 -108 -44 -88 -32 -189 30 -258 68
-75 -20 -71 1309 -68 l1190 3 45 30 c62 41 95 109 94 190 -1 92 -41 157 -124
201 -34 18 -84 19 -1205 21 -941 1 -1178 -1 -1212 -11z"/>
<path d="M12977 9107 c-172 -54 -207 -299 -59 -402 l44 -30 426 -3 c484 -3
480 -4 550 72 67 72 79 158 36 244 -30 61 -74 98 -140 118 -62 18 -797 19
-857 1z"/>
<path d="M3982 7117 c-195 -71 -188 -352 11 -426 20 -8 612 -11 1905 -11
l1877 0 52 24 c142 66 175 266 60 360 -88 72 85 66 -1994 65 -1419 0 -1886 -3
-1911 -12z"/>
<path d="M12139 7106 c-114 -41 -169 -152 -134 -273 16 -56 26 -67 303 -346
183 -183 302 -295 328 -307 54 -27 142 -27 193 0 115 58 160 196 101 310 -10
19 -148 164 -307 321 -240 238 -295 287 -329 297 -53 15 -109 15 -155 -2z"/>
<path d="M10151 6286 c-50 -18 -111 -74 -133 -122 -17 -40 -18 -72 -18 -453 0
-465 -1 -462 77 -531 123 -108 311 -56 357 99 23 80 24 781 0 860 -36 123
-165 190 -283 147z"/>
</g>
</svg>
