<?xml version="1.0" standalone="no"?>
<!DOCTYPE svg PUBLIC "-//W3C//DTD SVG 20010904//EN"
 "http://www.w3.org/TR/2001/REC-SVG-20010904/DTD/svg10.dtd">
<svg version="1.0" xmlns="http://www.w3.org/2000/svg"
 width="200.000000pt" height="200.000000pt" viewBox="0 0 200.000000 200.000000"
 preserveAspectRatio="xMidYMid meet">

<g transform="translate(0.000000,200.000000) scale(0.100000,-0.100000)"
fill="#000000" stroke="none">
<path d="M225 888 c-2 -13 -9 -52 -15 -88 -6 -36 -14 -75 -17 -87 -5 -22 -3
-23 76 -23 74 0 81 2 81 20 0 17 -7 20 -51 20 -43 0 -50 3 -45 16 3 9 6 18 6
20 0 2 18 4 39 4 26 0 41 5 45 16 11 29 6 34 -34 34 -33 0 -40 3 -40 19 0 17
8 20 53 23 45 3 52 6 55 26 3 21 0 22 -72 22 -70 0 -76 -2 -81 -22z"/>
<path d="M435 888 c-21 -18 -28 -38 -38 -97 -11 -71 -10 -74 12 -92 51 -41
151 -7 151 52 0 15 -46 10 -60 -6 -7 -8 -22 -15 -33 -15 -18 0 -19 5 -14 57 8
78 57 115 65 50 3 -21 9 -27 27 -27 23 0 35 17 35 49 0 51 -97 70 -145 29z"/>
<path d="M641 891 c-36 -36 -58 -168 -33 -193 21 -21 106 -16 131 6 41 37 59
168 26 192 -29 21 -101 18 -124 -5z m78 -30 c14 -9 8 -78 -11 -113 -9 -19 -43
-24 -53 -8 -10 16 6 100 22 115 17 17 23 18 42 6z"/>
<path d="M851 891 c-23 -23 -41 -84 -44 -143 -2 -53 21 -71 82 -65 50 6 78 29
87 75 6 32 6 32 -35 32 -29 0 -41 -4 -41 -14 0 -8 6 -16 13 -19 19 -7 -7 -30
-29 -25 -15 3 -19 12 -18 39 1 54 12 86 30 93 22 9 47 -13 40 -36 -4 -16 0
-19 22 -16 23 3 28 9 30 38 4 43 -16 60 -75 60 -29 0 -49 -6 -62 -19z"/>
<path d="M1027 813 c-22 -127 -22 -125 11 -121 23 3 27 8 30 41 4 50 28 49 42
-3 9 -35 14 -40 40 -40 33 0 35 4 19 48 -8 24 -7 35 6 55 20 31 23 96 4 108
-8 5 -41 9 -75 9 l-61 0 -16 -97z m108 22 c0 -15 -8 -21 -29 -23 -23 -3 -28 0
-22 13 3 9 6 21 6 27 0 5 10 8 23 6 14 -2 22 -10 22 -23z"/>
<path d="M1269 883 c-6 -16 -21 -57 -34 -93 -13 -36 -26 -73 -30 -82 -12 -29
47 -24 60 5 7 14 19 22 35 22 19 0 25 -5 24 -22 0 -19 5 -23 28 -23 l28 0 0
110 0 110 -50 0 c-46 0 -52 -3 -61 -27z m59 -65 c-2 -33 -8 -44 -22 -46 -17
-4 -18 0 -11 34 8 45 12 54 26 54 6 0 9 -19 7 -42z"/>
<path d="M1455 885 c-43 -42 -31 -76 36 -109 23 -12 43 -25 43 -31 2 -18 -47
-18 -60 0 -15 20 -58 16 -62 -5 -6 -35 24 -55 81 -55 63 0 97 22 97 64 0 37
-11 49 -55 64 -28 10 -40 20 -40 33 0 28 45 32 52 5 7 -26 48 -29 57 -5 4 9
-1 27 -9 40 -13 20 -24 24 -66 24 -40 0 -55 -5 -74 -25z"/>
<path d="M1659 889 c-14 -14 -19 -30 -17 -52 3 -27 10 -35 51 -55 54 -26 63
-52 18 -52 -16 0 -31 6 -35 15 -3 8 -17 15 -31 15 -20 0 -25 -5 -25 -24 0 -50
79 -73 139 -41 56 28 45 104 -16 120 -52 13 -68 39 -33 50 22 7 53 -11 44 -26
-3 -5 9 -9 25 -9 28 0 31 3 31 30 0 36 -23 50 -84 50 -33 0 -52 -6 -67 -21z"/>
</g>
</svg>
