<?xml version="1.0" standalone="no"?>
<!DOCTYPE svg PUBLIC "-//W3C//DTD SVG 20010904//EN"
 "http://www.w3.org/TR/2001/REC-SVG-20010904/DTD/svg10.dtd">
<svg version="1.0" xmlns="http://www.w3.org/2000/svg"
 width="5120.000000pt" height="5120.000000pt" viewBox="0 0 5120.000000 5120.000000"
 preserveAspectRatio="xMidYMid meet">

<g transform="translate(0.000000,5120.000000) scale(0.100000,-0.100000)"
fill="#000000" stroke="none">
<path d="M19150 45267 c-3 -3 -117 -7 -255 -11 -237 -5 -303 -8 -505 -21 -159
-10 -417 -32 -525 -45 -44 -5 -105 -12 -135 -15 -30 -3 -68 -8 -85 -10 -16 -3
-52 -7 -80 -11 -50 -5 -364 -52 -530 -79 -49 -7 -137 -23 -195 -35 -58 -12
-121 -23 -140 -26 -19 -2 -43 -7 -52 -10 -10 -3 -30 -8 -45 -10 -16 -3 -68
-14 -118 -25 -49 -11 -101 -22 -115 -25 -61 -12 -407 -97 -525 -129 -71 -19
-138 -37 -148 -40 -9 -2 -21 -6 -25 -9 -5 -3 -19 -7 -33 -10 -53 -10 -287 -81
-519 -157 -1182 -390 -2262 -918 -3295 -1614 -1102 -743 -2116 -1678 -2968
-2740 -986 -1227 -1746 -2626 -2247 -4137 -68 -204 -157 -496 -166 -547 -3
-14 -7 -28 -10 -33 -3 -4 -7 -16 -9 -25 -3 -10 -21 -76 -40 -148 -32 -118
-117 -464 -129 -525 -3 -14 -14 -65 -25 -115 -43 -195 -132 -680 -145 -795 -3
-19 -11 -80 -20 -135 -8 -55 -18 -125 -21 -155 -3 -30 -8 -64 -10 -75 -2 -11
-7 -50 -10 -87 -3 -37 -8 -77 -10 -90 -7 -42 -40 -421 -50 -568 -32 -501 -37
-873 -20 -1425 5 -141 30 -560 39 -642 3 -21 7 -74 11 -118 4 -44 9 -88 11
-98 2 -10 6 -48 9 -85 5 -60 12 -117 20 -164 2 -9 7 -48 10 -85 6 -57 19 -154
61 -433 3 -19 12 -73 20 -120 9 -47 18 -98 21 -115 9 -60 105 -532 124 -610
11 -44 22 -91 25 -105 18 -90 130 -514 164 -625 5 -16 18 -59 29 -95 11 -36
54 -173 96 -305 69 -215 105 -320 165 -480 93 -248 132 -351 148 -387 11 -24
34 -79 51 -123 18 -44 39 -95 48 -115 8 -19 19 -44 24 -55 450 -1054 1066
-2088 1778 -2985 1113 -1404 2468 -2558 4006 -3414 204 -114 703 -368 855
-436 41 -18 113 -51 160 -72 105 -49 490 -212 574 -243 33 -12 111 -42 171
-65 61 -23 153 -57 205 -75 52 -19 145 -51 205 -73 95 -34 312 -103 590 -187
150 -45 611 -164 760 -196 55 -11 107 -22 115 -24 51 -12 302 -65 335 -70 22
-4 49 -9 60 -11 126 -23 363 -64 397 -68 67 -8 189 -26 212 -31 12 -3 39 -7
61 -9 22 -2 94 -11 160 -20 66 -8 151 -18 190 -21 38 -3 76 -7 85 -9 8 -3 56
-7 105 -11 50 -3 108 -8 130 -10 22 -2 74 -7 115 -10 41 -3 152 -10 245 -17
233 -17 1293 -17 1525 0 96 7 204 15 240 17 133 10 319 27 445 41 72 8 153 17
180 20 28 3 59 7 71 9 11 3 45 7 75 10 30 4 95 13 144 20 144 22 237 37 275
42 19 2 51 8 70 13 19 5 55 12 80 15 25 4 115 20 200 36 196 38 202 39 222 45
9 3 25 6 35 8 82 16 241 52 303 68 41 10 82 21 90 23 8 2 35 8 60 14 25 7 56
14 70 17 51 10 389 105 535 149 302 92 861 285 970 335 11 5 63 25 115 45 52
20 109 43 125 50 17 7 118 50 225 95 288 123 679 310 955 457 209 112 289 156
300 163 10 8 39 24 135 78 68 37 321 190 440 265 l105 67 7300 -7299 c5448
-5448 7316 -7310 7363 -7340 181 -115 408 -125 612 -29 61 29 178 145 1716
1682 1537 1538 1653 1655 1682 1716 97 204 86 431 -29 612 -30 47 -1892 1915
-7340 7363 l-7299 7300 67 105 c75 119 228 372 265 440 54 96 70 125 78 135 4
6 26 46 50 90 243 449 414 801 569 1165 46 107 89 209 96 225 7 17 30 73 50
125 20 52 40 104 45 115 103 227 423 1221 484 1506 3 13 21 87 41 164 19 77
42 172 50 210 17 78 43 199 50 230 7 32 63 327 69 365 3 19 8 46 11 60 3 14 7
39 10 55 3 17 7 44 10 60 13 76 54 356 59 404 4 30 8 64 11 75 2 12 6 44 9 71
3 28 12 109 20 180 19 166 35 355 58 685 19 283 14 1596 -7 1630 -2 3 -6 52
-9 110 -4 58 -8 121 -10 140 -2 19 -7 80 -11 135 -4 55 -9 103 -11 106 -2 4
-6 42 -9 85 -3 44 -8 86 -10 94 -3 8 -7 44 -10 80 -3 36 -17 144 -31 240 -14
96 -28 192 -30 212 -5 39 -58 345 -68 388 -3 13 -8 42 -12 65 -3 22 -12 72
-21 110 -8 39 -17 81 -19 95 -3 14 -9 41 -14 60 -5 19 -11 46 -14 60 -16 87
-52 246 -87 380 -22 85 -42 166 -45 180 -5 24 -86 313 -105 375 -139 454 -216
682 -319 950 -23 61 -52 137 -65 170 -47 124 -192 464 -301 705 -79 174 -337
682 -450 885 -563 1011 -1232 1914 -2050 2767 -1171 1220 -2578 2219 -4084
2900 -85 38 -179 81 -208 94 -29 13 -55 24 -58 24 -3 0 -24 8 -47 19 -23 10
-82 35 -132 56 -49 21 -104 43 -120 51 -17 7 -98 38 -180 69 -83 31 -186 70
-230 87 -93 36 -538 184 -670 223 -189 57 -461 135 -485 139 -14 3 -86 21
-160 40 -74 19 -146 37 -160 40 -14 3 -61 14 -105 25 -77 19 -549 115 -610
124 -16 3 -68 12 -115 21 -47 8 -101 17 -120 20 -19 3 -78 12 -130 20 -52 8
-117 17 -145 21 -27 3 -59 8 -70 10 -11 2 -51 7 -88 10 -37 4 -77 8 -89 10
-26 5 -97 14 -170 21 -32 3 -66 7 -75 8 -10 2 -54 7 -98 11 -44 4 -96 8 -115
10 -38 4 -286 21 -445 30 -211 13 -858 29 -865 22z m730 -1252 c41 -2 111 -6
155 -9 44 -3 121 -8 170 -12 173 -11 386 -32 640 -65 204 -25 219 -27 285 -39
30 -5 73 -12 95 -15 63 -9 105 -16 180 -30 39 -8 95 -17 125 -20 30 -4 58 -9
61 -11 3 -2 19 -6 35 -8 35 -7 40 -8 174 -36 58 -12 159 -34 225 -50 66 -16
131 -31 145 -34 14 -3 40 -9 58 -15 17 -5 32 -8 32 -5 0 3 8 0 18 -5 9 -5 31
-11 47 -14 17 -3 39 -8 50 -11 11 -3 36 -10 55 -15 176 -46 653 -190 770 -232
30 -11 123 -44 205 -73 482 -172 1135 -460 1545 -682 52 -28 120 -65 150 -81
364 -197 861 -509 1220 -767 1652 -1185 2952 -2711 3835 -4501 79 -159 175
-364 215 -455 39 -91 78 -178 85 -195 39 -86 135 -327 162 -405 8 -25 21 -58
28 -75 8 -16 31 -82 53 -145 22 -63 45 -128 52 -145 31 -80 166 -519 222 -720
62 -230 178 -713 195 -820 2 -16 11 -61 20 -100 8 -38 16 -81 19 -95 2 -14 7
-41 10 -60 3 -19 8 -46 10 -60 2 -14 6 -34 9 -46 3 -12 7 -39 10 -60 3 -21 8
-49 10 -61 3 -12 7 -41 10 -65 3 -24 10 -70 15 -103 5 -33 12 -76 14 -95 3
-19 8 -57 12 -85 4 -27 7 -53 6 -56 0 -3 3 -35 8 -70 9 -70 14 -111 31 -269 6
-58 11 -112 11 -120 0 -8 4 -62 10 -120 40 -450 47 -1238 14 -1700 -4 -52 -9
-126 -12 -165 -2 -38 -7 -90 -9 -115 -2 -25 -7 -77 -10 -115 -12 -133 -13
-150 -24 -240 -6 -49 -14 -110 -16 -135 -10 -83 -59 -420 -76 -515 -5 -33 -12
-69 -13 -80 -15 -86 -72 -374 -96 -480 -16 -71 -31 -141 -34 -155 -8 -42 -30
-131 -101 -410 -2 -8 -18 -64 -36 -125 -17 -60 -32 -114 -33 -120 -3 -15 -62
-206 -106 -340 -65 -203 -210 -613 -240 -680 -5 -11 -34 -83 -65 -160 -31 -77
-60 -149 -65 -160 -5 -11 -39 -87 -75 -170 -421 -954 -962 -1843 -1621 -2666
-300 -374 -503 -599 -898 -995 -533 -533 -938 -877 -1531 -1304 -121 -87 -572
-388 -681 -455 -136 -82 -190 -114 -314 -185 -441 -251 -791 -427 -1265 -633
-88 -38 -178 -76 -200 -84 -22 -8 -53 -21 -70 -28 -78 -35 -466 -176 -690
-250 -394 -130 -786 -238 -1165 -321 -63 -14 -155 -34 -205 -45 -49 -11 -106
-22 -125 -25 -19 -2 -46 -7 -60 -10 -23 -5 -88 -17 -165 -30 -155 -27 -466
-73 -535 -79 -40 -4 -67 -8 -150 -20 -27 -4 -323 -32 -430 -40 -36 -3 -92 -7
-125 -10 -75 -6 -233 -15 -345 -20 -126 -5 -955 -6 -971 -1 -8 2 -98 7 -201
10 -103 4 -193 8 -200 11 -7 2 -53 6 -103 9 -49 3 -153 12 -230 20 -77 8 -169
18 -205 21 -36 3 -76 8 -90 10 -14 2 -50 7 -80 11 -30 4 -64 8 -75 9 -11 2
-42 6 -70 9 -27 3 -61 8 -75 11 -64 12 -78 14 -125 21 -61 8 -76 10 -145 23
-30 5 -68 12 -85 15 -24 4 -197 36 -320 60 -11 3 -63 14 -115 26 -52 12 -115
25 -140 30 -44 9 -68 15 -112 26 -27 6 -30 7 -83 22 -22 6 -51 13 -65 16 -14
2 -32 7 -40 10 -8 3 -26 8 -40 10 -116 22 -689 196 -965 294 -709 251 -1353
546 -2000 917 -1753 1006 -3261 2474 -4312 4195 -82 136 -204 342 -246 420
-16 30 -38 69 -47 85 -70 119 -287 554 -395 790 -31 67 -165 376 -165 380 0 3
-13 34 -30 70 -16 36 -30 69 -30 74 0 4 -18 52 -40 107 -49 119 -147 396 -224
629 -49 150 -163 524 -171 565 -2 8 -29 116 -60 240 -61 241 -63 252 -71 290
-3 14 -7 33 -10 42 -3 10 -7 30 -10 45 -3 16 -20 105 -39 198 -42 210 -55 280
-61 325 -2 19 -6 46 -9 60 -3 14 -8 36 -10 50 -3 14 -10 57 -16 95 -5 39 -11
79 -13 90 -2 11 -7 45 -10 75 -4 30 -16 125 -26 210 -33 257 -32 248 -50 480
-6 74 -13 153 -15 175 -2 22 -7 117 -10 210 -4 94 -9 186 -10 205 -5 52 -5
728 0 855 4 101 21 380 30 515 3 49 30 329 39 420 2 19 9 71 14 115 6 44 14
103 17 130 3 28 8 57 10 65 2 8 6 42 10 75 3 33 7 67 10 75 2 8 6 33 10 55 5
37 8 59 19 125 2 14 11 63 20 110 8 47 17 96 20 110 14 86 21 121 52 265 19
88 43 198 55 245 11 47 21 94 23 105 4 18 106 408 126 480 12 45 95 316 129
425 16 52 53 160 81 240 28 80 62 174 75 210 137 389 461 1115 661 1480 22 41
59 109 81 150 358 663 877 1416 1396 2024 425 497 940 1009 1442 1432 817 688
1744 1277 2720 1728 70 33 165 76 200 91 17 8 55 25 86 39 73 32 417 168 539
214 404 148 788 269 1180 370 231 59 249 64 275 69 11 2 37 8 58 14 42 11 357
78 397 84 14 2 90 16 170 30 189 35 154 30 400 65 228 32 256 36 335 45 28 3
66 8 85 10 19 3 64 7 100 10 36 4 80 8 99 10 19 3 68 7 110 10 42 3 139 10
216 15 77 6 237 13 355 17 118 3 217 8 220 10 5 5 689 -5 830 -12z m10847
-21287 c508 -508 923 -927 923 -933 0 -13 -2232 -2245 -2245 -2245 -12 0
-1861 1848 -1855 1853 3 3 55 44 115 93 365 293 684 581 1075 973 389 389 683
714 953 1053 56 71 104 128 107 128 3 0 420 -415 927 -922z m9116 -11370
l-1128 -1128 -4217 4217 -4218 4218 1127 1127 1128 1128 4217 -4217 4218
-4218 -1127 -1127z m2805 -2805 l-1128 -1128 -965 965 -965 965 1127 1127
1128 1128 965 -965 965 -965 -1127 -1127z"/>
<path d="M9145 32433 c-128 -15 -263 -81 -356 -173 -88 -87 -141 -182 -176
-320 -12 -46 -14 -346 -4 -507 8 -141 13 -169 40 -239 38 -98 73 -154 138
-221 62 -63 143 -116 231 -150 92 -35 262 -44 360 -18 212 56 383 224 448 440
16 53 18 93 16 345 -3 241 -6 298 -23 369 -71 307 -363 512 -674 474z"/>
<path d="M9277 30259 c-199 -56 -351 -204 -422 -414 -25 -73 -30 -214 -11
-310 9 -44 18 -93 22 -110 15 -76 129 -513 168 -645 7 -25 25 -85 40 -135 31
-104 122 -381 135 -410 5 -11 21 -56 36 -100 130 -378 422 -1027 652 -1450
533 -978 1257 -1921 2054 -2675 646 -611 1336 -1127 2069 -1548 344 -197 687
-370 1050 -529 126 -55 453 -189 500 -204 14 -4 63 -22 110 -39 168 -63 588
-199 755 -244 94 -26 193 -53 220 -61 28 -8 61 -16 75 -19 14 -2 32 -7 40 -10
8 -3 26 -8 40 -10 14 -3 43 -10 65 -15 97 -24 500 -108 547 -115 20 -3 47 -7
60 -10 12 -3 37 -7 53 -10 17 -2 86 -14 155 -25 128 -21 389 -56 494 -65 33
-3 96 -10 140 -16 45 -5 117 -12 161 -14 44 -3 139 -10 210 -16 72 -5 267 -13
435 -16 348 -7 399 -1 526 62 158 78 298 253 329 414 60 307 -102 608 -384
714 -101 38 -166 46 -390 47 -113 0 -222 2 -241 4 -19 1 -91 6 -160 10 -180
10 -262 15 -285 19 -11 2 -65 7 -120 12 -55 4 -102 9 -105 9 -3 1 -32 5 -65 9
-86 10 -126 16 -160 21 -16 3 -48 7 -70 10 -22 3 -98 15 -170 26 -71 12 -139
23 -150 24 -11 2 -42 8 -70 14 -27 5 -63 12 -80 15 -71 11 -414 89 -575 132
-96 25 -182 47 -190 49 -76 18 -464 143 -635 205 -789 287 -1558 687 -2225
1158 -484 342 -852 653 -1280 1081 -657 658 -1162 1328 -1620 2151 -80 145
-310 599 -310 614 0 2 -18 43 -40 90 -22 47 -40 87 -40 90 0 2 -14 35 -31 73
-68 152 -145 355 -227 593 -33 96 -68 198 -77 225 -10 28 -21 64 -25 80 -4 17
-24 86 -44 155 -38 126 -124 454 -133 500 -2 14 -11 54 -19 90 -9 36 -18 76
-20 90 -3 14 -23 63 -46 109 -75 156 -229 281 -401 327 -75 20 -237 16 -320
-7z"/>
</g>
</svg>
